<?xml version="1.0" encoding="UTF-8"?>
<svg xmlns="http://www.w3.org/2000/svg" id="Layer_1" data-name="Layer 1" viewBox="0 0 24 24">
  <path d="m24,7.99c0-1.136-.631-2.177-1.729-2.807l-7.756-3.542c-1.527-.879-3.502-.878-4.99-.021L1.729,5.184c-.014.007-.028.014-.041.021-1.057.608-1.687,1.649-1.687,2.785s.631,2.177,1.729,2.807l2.271,1.037v6.183c0,1.93,1.195,3.631,2.974,4.233,1.471.498,3.162.75,5.026.75s3.556-.252,5.026-.75c1.778-.603,2.974-2.304,2.974-4.233v-6.184l2.312-1.057c.255-.147.485-.321.688-.513v10.238c0,.276.224.5.5.5s.5-.224.5-.5v-12.5s0-.002,0-.003c0-.002,0-.005,0-.007Zm-5,10.026c0,1.501-.922,2.821-2.294,3.286-1.367.463-2.951.697-4.706.697s-3.339-.234-4.706-.697c-1.372-.465-2.294-1.785-2.294-3.286v-5.726l4.484,2.047c.769.442,1.65.662,2.526.662.865,0,1.725-.215,2.464-.641l4.525-2.069v5.727Zm2.855-8.13l-7.838,3.584c-1.227.706-2.811.706-4.076-.021l-7.756-3.541c-.753-.434-1.186-1.133-1.186-1.918,0-.778.425-1.473,1.167-1.907l7.815-3.574c1.227-.707,2.811-.705,4.076.021l7.756,3.542c.753.434,1.186,1.133,1.186,1.918s-.433,1.484-1.145,1.896Z"/>
</svg>
