<?xml version="1.0" encoding="UTF-8"?>
<svg xmlns="http://www.w3.org/2000/svg" id="Layer_1" data-name="Layer 1" viewBox="0 0 24 24">
  <path d="m20,21.051v-8.051h.543c.804,0,1.457-.653,1.457-1.457,0-.533-.291-1.023-.76-1.279l-8.174-4.458c-.181-.099-.372-.166-.566-.211v-.936l2.979-1.491c.326-.225.521-.604.521-1.017s-.195-.793-.521-1.018c-.025-.017-2.329-1.04-2.474-1.083-.351-.106-.724-.04-1.022.182-.302.225-.483.583-.483.958v4.405c-.195.045-.386.112-.566.211L2.76,10.264h0c-.468.256-.759.746-.759,1.279,0,.804.654,1.457,1.457,1.457h.543v8.051c-1.14.232-2,1.242-2,2.449,0,.276.224.5.5.5s.5-.224.5-.5c0-.827.673-1.5,1.5-1.5-.237,0,15.201,0,15,0,.827,0,1.5.673,1.5,1.5,0,.276.224.5.5.5s.5-.224.5-.5c0-1.208-.86-2.217-2-2.449ZM12.5,1.189c0-.087.055-.138.079-.155.022-.017.123-.031.138-.026.103.03.204.067.304.112l1.914.856c.06.059.064.146.064.174,0,.03-.006.137-.028.157l-2.472,1.233V1.189Zm-5.5,19.811h-2v-8h2v8Zm3,0h-2v-8h2v8Zm3,0h-2v-8h2v8Zm3,0h-2v-8h2v8Zm1,0v-8h2v8h-2ZM3.457,12c-.252,0-.457-.205-.457-.457,0-.168.091-.321.238-.402l8.174-4.458c.368-.199.808-.199,1.176,0l8.174,4.458c.146.081.238.234.238.402,0,.252-.205.457-.457.457H3.457Z"/>
</svg>
